<svg width="227" height="49" viewBox="0 0 227 49" xmlns="http://www.w3.org/2000/svg">
	<path d="M54.332 34.045V14.5966H58.3299V30.7439H68.2047V34.045H54.332ZM70.2036 24.3407C70.2036 22.3521 70.5235 20.6817 71.1232 19.2897C71.5629 18.2954 72.2026 17.3806 72.9622 16.5852C73.7218 15.7897 74.6013 15.1932 75.5208 14.7954C76.7602 14.2784 78.1594 14 79.7586 14C82.6771 14 84.9958 14.9148 86.7549 16.7045C88.514 18.4942 89.3535 20.9998 89.3535 24.1816C89.3535 27.3633 88.474 29.8292 86.7549 31.6189C85.0358 33.4086 82.717 34.3234 79.7986 34.3234C76.8801 34.3234 74.5214 33.4484 72.8023 31.6587C71.0832 29.9485 70.2036 27.4826 70.2036 24.3407ZM74.3215 24.2214C74.3215 26.4486 74.8412 28.119 75.8806 29.2724C76.9201 30.4258 78.2394 30.9826 79.7986 30.9826C81.3977 30.9826 82.677 30.4258 83.7165 29.2724C84.716 28.119 85.2357 26.4088 85.2357 24.1418C85.2357 21.8748 84.756 20.2044 83.7565 19.0908C82.757 17.9772 81.4377 17.4204 79.7986 17.4204C78.1594 17.4204 76.8401 17.9772 75.8407 19.0908C74.8412 20.2839 74.3215 21.9544 74.3215 24.2214ZM110.222 34.045H105.905L104.186 29.5906H96.2699L94.6307 34.045H90.393L98.0289 14.4375H102.227L110.222 34.045ZM102.906 26.2497L100.148 19.0112L97.4692 26.2497H102.906ZM112.341 14.4375H119.618C121.257 14.4375 122.496 14.5568 123.376 14.7954C124.535 15.1136 125.534 15.75 126.334 16.5852C127.174 17.4601 127.773 18.4942 128.213 19.7669C128.653 20.9998 128.853 22.5509 128.853 24.3804C128.853 26.0111 128.653 27.4031 128.253 28.5565C127.773 29.9883 127.054 31.1417 126.134 32.0166C125.454 32.6928 124.495 33.2098 123.336 33.5677C122.456 33.8461 121.297 33.9655 119.817 33.9655H112.341V14.4375ZM116.339 17.7385V30.7042H119.298C120.417 30.7042 121.217 30.6246 121.696 30.5053C122.336 30.3462 122.856 30.0678 123.296 29.6701C123.735 29.2724 124.055 28.6758 124.335 27.761C124.615 26.8861 124.735 25.6929 124.735 24.1816C124.735 22.6703 124.615 21.5169 124.335 20.6817C124.055 19.8862 123.695 19.2499 123.216 18.7726C122.736 18.3351 122.136 18.017 121.377 17.8579C120.817 17.7386 119.737 17.659 118.138 17.659H116.339V17.7385ZM132.211 34.045V14.4375H146.803V17.7385H136.209V22.0737H146.084V25.3747H136.209V30.7042H147.203V34.0052H132.211V34.045ZM150.561 34.045V14.4375H158.957C161.076 14.4375 162.595 14.5966 163.554 14.9545C164.514 15.3125 165.273 15.9488 165.833 16.8238C166.393 17.7386 166.713 18.7726 166.713 19.926C166.713 21.3976 166.273 22.6305 165.433 23.585C164.554 24.5395 163.274 25.1361 161.555 25.4145C162.395 25.9315 163.115 26.4486 163.674 27.0452C164.234 27.6417 164.994 28.7156 165.913 30.2269L168.312 34.045H163.554L160.716 29.7496C159.676 28.2383 158.997 27.2838 158.597 26.8861C158.237 26.4883 157.837 26.2099 157.398 26.0906C156.958 25.9315 156.318 25.852 155.399 25.852H154.599V34.045H150.561ZM154.559 22.7498H157.517C159.436 22.7498 160.596 22.6703 161.076 22.5112C161.555 22.3521 161.915 22.0737 162.195 21.676C162.475 21.2782 162.595 20.801 162.595 20.2044C162.595 19.5283 162.435 19.0112 162.075 18.6135C161.715 18.2158 161.236 17.9374 160.596 17.8579C160.276 17.8181 159.317 17.7783 157.677 17.7783H154.559V22.7498ZM170.471 34.045V14.4375H176.867C179.266 14.4375 180.865 14.517 181.585 14.7159C182.704 14.9943 183.664 15.6704 184.423 16.6249C185.183 17.6192 185.583 18.8919 185.583 20.443C185.583 21.6362 185.343 22.6703 184.943 23.4657C184.503 24.3009 183.944 24.9373 183.264 25.4145C182.584 25.8918 181.905 26.2099 181.185 26.3293C180.225 26.5281 178.866 26.6077 177.067 26.6077H174.469V34.0052H170.471V34.045ZM174.469 17.7385V23.3066H176.627C178.187 23.3066 179.226 23.1873 179.746 22.9884C180.265 22.7896 180.705 22.4714 180.985 22.0339C181.265 21.5964 181.425 21.0794 181.425 20.5226C181.425 19.8067 181.225 19.2101 180.785 18.7328C180.345 18.2556 179.826 17.9772 179.186 17.8579C178.706 17.7783 177.747 17.7385 176.348 17.7385H174.469ZM188.821 34.045V14.4375H197.217C199.335 14.4375 200.855 14.5966 201.814 14.9545C202.774 15.3125 203.533 15.9488 204.093 16.8238C204.653 17.7386 204.972 18.7726 204.972 19.926C204.972 21.3976 204.533 22.6305 203.693 23.585C202.814 24.5395 201.534 25.1361 199.815 25.4145C200.655 25.9315 201.374 26.4486 201.934 27.0452C202.494 27.6417 203.253 28.7156 204.173 30.2269L206.572 34.045H201.814L198.976 29.7496C197.936 28.2383 197.256 27.2838 196.857 26.8861C196.497 26.4883 196.097 26.2099 195.657 26.0906C195.218 25.9315 194.578 25.852 193.658 25.852H192.859V34.045H188.821ZM192.819 22.7498H195.777C197.696 22.7498 198.856 22.6703 199.335 22.5112C199.815 22.3521 200.175 22.0737 200.455 21.676C200.735 21.2782 200.855 20.801 200.855 20.2044C200.855 19.5283 200.695 19.0112 200.335 18.6135C199.975 18.2158 199.495 17.9374 198.856 17.8579C198.536 17.8181 197.576 17.7783 195.937 17.7783H192.819V22.7498ZM207.891 24.3407C207.891 22.3521 208.211 20.6817 208.81 19.2897C209.25 18.2954 209.89 17.3806 210.649 16.5852C211.409 15.7897 212.289 15.1932 213.208 14.7954C214.447 14.2784 215.847 14 217.446 14C220.364 14 222.683 14.9148 224.442 16.7045C226.201 18.4942 227.041 20.9998 227.041 24.1816C227.041 27.3633 226.161 29.8292 224.442 31.6189C222.683 33.4882 220.364 34.4029 217.486 34.4029C214.567 34.4029 212.209 33.528 210.489 31.7382C208.73 29.9485 207.891 27.4826 207.891 24.3407ZM211.969 24.2214C211.969 26.4486 212.488 28.119 213.528 29.2724C214.567 30.4258 215.887 30.9826 217.446 30.9826C219.045 30.9826 220.324 30.4258 221.364 29.2724C222.363 28.119 222.883 26.4088 222.883 24.1418C222.883 21.8748 222.403 20.2044 221.404 19.0908C220.404 17.9772 219.085 17.4204 217.446 17.4204C215.807 17.4204 214.487 17.9772 213.488 19.0908C212.488 20.2839 211.969 21.9544 211.969 24.2214Z"/>
	<path d="M29.8647 21.2778C29.305 20.2835 28.7853 19.2892 28.2256 18.2949C28.1456 18.1359 28.0257 18.0563 27.8658 18.0563C27.546 18.0165 27.2261 17.937 26.9063 17.8972C26.7864 17.8575 26.7064 17.8972 26.6265 18.0165C26.5465 18.1756 26.4266 18.3347 26.3066 18.4938C25.7869 18.1756 25.3071 17.8972 24.8274 17.5791C25.0673 17.2211 25.2672 16.8632 25.507 16.4654C25.547 16.4257 25.587 16.3461 25.587 16.3064C25.587 16.2268 25.547 16.1075 25.547 16.028C25.4671 16.0677 25.3071 16.0677 25.2672 16.1075C25.0273 16.4654 24.8274 16.8234 24.5875 17.1416C24.5076 17.2211 24.4276 17.3007 24.3077 17.3802C24.2677 17.42 24.2277 17.4597 24.2277 17.4995C24.3077 17.6984 24.1877 17.7779 24.1078 17.937C23.9079 18.2552 23.748 18.5336 23.5481 18.8518C23.4681 18.9711 23.3882 19.1302 23.5481 19.2097C23.708 19.2892 23.788 19.1699 23.8679 19.0506C24.1078 18.6529 24.3477 18.2552 24.5875 17.8575C25.0673 18.1756 25.547 18.454 26.0667 18.7324C25.9068 18.9711 25.7869 19.1699 25.627 19.4086C25.9468 19.7665 26.3066 20.1642 26.6265 20.5619C26.9063 20.8801 27.2261 21.2381 27.506 21.5562C27.5859 21.6358 27.6259 21.7153 27.546 21.8744C27.1862 22.5108 26.8663 23.1471 26.5465 23.7835C26.5065 23.863 26.4266 23.9425 26.3466 23.9425C24.9473 23.9425 23.5481 23.9425 22.1488 23.9425C22.1088 23.9425 22.1088 23.9425 22.0689 23.9028C22.0689 23.5448 22.0689 23.2267 22.0689 22.8687C22.0689 22.113 21.7091 21.7153 20.9495 21.7153C19.2703 21.7153 17.5912 21.7153 15.9121 21.7153H15.6323V10.9372H15.8721C18.6307 10.9372 21.4292 10.9372 24.1877 10.9372C24.3477 10.9372 24.4276 11.0167 24.5076 11.136C25.9068 13.8007 27.3061 16.4654 28.7054 19.1302C29.1451 19.9654 29.5849 20.8006 30.0247 21.596C30.0646 21.6756 30.1046 21.7551 30.1046 21.8744C30.0646 21.6756 29.9847 21.4767 29.8647 21.2778ZM24.0678 26.2493C23.708 26.2493 23.3482 26.2493 23.0284 26.2493C22.8684 26.2493 22.7885 26.1698 22.7885 26.0107C22.7885 25.2948 22.7485 25.2948 23.5081 25.2948H23.788C24.0278 25.2948 24.3077 25.2948 24.5476 25.2948C24.7075 25.2948 24.7874 25.3346 24.7874 25.5334C24.7474 26.3686 24.8674 26.2095 24.0678 26.2493ZM21.0294 26.2891C21.0294 26.5277 20.8295 26.6868 20.5896 26.6868C20.4297 26.6868 20.3098 26.6868 20.1099 26.6868C20.4297 25.8914 20.7096 25.1357 20.9894 24.38H21.0294C21.0294 25.0164 21.0294 25.6527 21.0294 26.2891ZM19.5502 26.5277C19.99 25.3743 20.4297 24.1812 20.9095 23.0278C20.9495 22.988 20.9495 22.8687 20.9095 22.8687C20.7496 22.7892 20.5896 22.7494 20.4297 22.7096C20.2698 22.6698 20.2698 22.8289 20.2298 22.9085C19.91 23.7835 19.5502 24.6584 19.2304 25.5334C19.0704 25.9311 18.9505 26.2891 18.7906 26.7266C18.9905 26.7266 19.1504 26.7266 19.3103 26.7266C19.4303 26.7266 19.5102 26.647 19.5502 26.5277ZM17.9111 26.7266C18.111 26.7266 18.1909 26.6868 18.2709 26.4879C18.5507 25.6925 18.8706 24.8971 19.1504 24.1016C19.3103 23.6244 19.5102 23.1869 19.6701 22.6698C19.4702 22.6698 19.3503 22.6698 19.1904 22.6698C19.0305 22.6698 18.9505 22.7096 18.8706 22.8687C18.4308 24.0221 18.031 25.1357 17.5912 26.2493C17.5512 26.3686 17.5113 26.5277 17.4313 26.6868C17.6312 26.6868 17.7911 26.6868 17.9111 26.7266ZM16.6317 26.7266C16.8316 26.7266 16.8716 26.647 16.9516 26.4879C17.3913 25.2948 17.8711 24.1016 18.3108 22.9085C18.3508 22.8289 18.3508 22.7494 18.3908 22.6698C18.2309 22.6698 18.111 22.6698 17.991 22.6698C17.7911 22.6301 17.6712 22.7096 17.6312 22.9085C17.3514 23.7039 17.0315 24.4993 16.7117 25.2948C16.5518 25.7323 16.3519 26.2095 16.192 26.6868C16.3519 26.6868 16.5118 26.6868 16.6317 26.7266ZM15.7922 26.0902C16.192 25.0562 16.5918 23.9823 16.9915 22.9482C17.0315 22.8687 17.0315 22.7892 17.0715 22.7096C16.9116 22.7096 16.7517 22.7096 16.6317 22.7096C16.4318 22.7096 16.3519 22.7892 16.3119 22.9482C16.112 23.5051 15.9121 24.0619 15.7122 24.5789C15.6323 24.8573 15.5123 25.0959 15.4324 25.3743C15.5123 25.5732 15.6722 25.8118 15.7922 26.0902ZM15.1925 24.1414C15.3924 23.6641 15.5523 23.1869 15.7522 22.6698C15.5523 22.6698 15.3924 22.6698 15.2325 22.6698C15.1125 22.6698 15.0326 22.7096 14.9926 22.8289C14.8727 23.1869 14.7127 23.5051 14.5928 23.863C14.7127 24.1414 14.8727 24.38 14.9926 24.6187C15.0726 24.4596 15.1525 24.3005 15.1925 24.1414ZM14.273 23.1869C14.193 23.0278 14.1131 22.8289 13.9931 22.6698H14.0331C14.153 22.6698 14.313 22.6698 14.4729 22.6698C14.3929 22.8687 14.313 23.0278 14.273 23.1869ZM35.5817 5.64751C35.5417 5.21002 35.1819 4.89185 34.7821 4.89185C34.3824 4.89185 34.0225 5.24979 34.0225 5.64751C34.0225 5.76683 34.0225 5.88614 34.0225 5.96568C34.0225 12.2496 34.0225 18.4938 34.0225 24.7778V25.0959C33.3429 25.0959 32.6633 25.0959 32.0236 25.0959C31.9836 25.0959 31.9436 25.0562 31.9037 25.0164C31.9436 24.9766 31.9836 24.9368 32.0236 24.9368C32.1835 24.9368 32.3434 24.9368 32.5833 24.9368C30.3845 20.7608 28.1456 16.5848 25.9468 12.4087C26.1467 12.4485 26.2666 12.4883 26.4266 12.4883V10.4599C25.8669 10.4997 25.507 10.7383 25.3471 11.2951C25.1872 11.0167 25.0673 10.7781 24.9473 10.5394C24.8674 10.3804 24.7874 10.3406 24.5875 10.3406C21.4692 10.3406 18.3508 10.3406 15.2325 10.3406C15.1525 10.3406 15.0726 10.3406 14.9526 10.3406V21.6756C14.4329 21.6756 13.9532 21.6756 13.4734 21.6756C13.3535 21.6756 13.2735 21.6756 13.1936 21.6756C13.1536 21.6756 13.1536 21.6756 13.1136 21.6756C10.9947 21.6756 8.83585 21.6756 6.71697 21.6756C4.59809 21.6756 2.47921 21.6756 0.360333 21.6756C0.0405025 21.6756 -0.0794341 21.7551 -0.0394553 22.0733C0.0405025 22.6301 0.0804814 23.1471 0.240397 23.6641C0.600207 24.9368 1.31983 25.8914 2.63913 26.2891C2.879 26.3686 2.95896 26.4482 2.99894 26.647C3.15885 27.2436 3.39873 27.8004 3.75854 28.2777C4.43818 29.1924 5.31771 29.8685 6.4771 29.8685C8.99577 29.9083 11.5144 29.8685 13.9931 29.8685C14.233 29.8685 14.273 29.8288 14.153 29.5901C13.9532 29.2322 13.7533 28.8742 13.5933 28.5163C12.8737 28.5163 12.1541 28.5163 11.4345 28.5163C10.0352 28.5163 8.67594 28.5163 7.27668 28.4765C5.9174 28.4765 4.83797 27.9197 4.27826 26.6868C4.15833 26.4482 4.03839 26.2095 4.51814 26.2095C6.99683 26.1698 9.47552 26.2095 11.9542 26.1698C12.0741 26.1698 12.1941 26.1698 12.274 26.1698C12.0741 25.8118 11.8742 25.4141 11.6744 25.0164C11.6744 24.9766 11.6344 24.9368 11.5944 24.8971C8.99577 24.8971 6.43712 24.8971 3.8385 24.9368C2.91898 24.9368 1.71961 24.1414 1.43976 23.3062C1.27985 22.7892 1.27985 22.7892 1.79957 22.7892C5.07784 22.7892 8.31613 22.7892 11.5544 22.7892C11.7143 22.7892 11.8742 22.7892 12.0342 22.7892L13.4734 25.5732V25.6527C14.0331 26.8061 14.6328 27.9595 15.1925 29.0731C15.2325 29.1527 15.2725 29.2322 15.3124 29.272C15.6722 28.1584 16.7917 27.3231 17.991 27.4027C19.4702 27.4822 20.5097 28.6356 20.5497 29.9481H24.8674C24.7075 28.1186 25.2672 26.5675 26.8663 25.5732C28.5055 24.5789 30.1046 24.7778 31.7038 25.772C31.7038 25.6925 31.7437 25.613 31.7437 25.5334H33.8626V31.4992H35.5817C35.5817 31.4196 35.5817 31.3401 35.5817 31.2606C35.5817 22.7892 35.5817 14.3575 35.5817 5.88614C35.5817 5.92591 35.6217 5.76683 35.5817 5.64751Z"/>
	<path d="M6.79688 0V14.3576H9.43548V2.62494H45.4165V24.4994C45.4165 31.2606 41.9783 37.4253 36.2613 40.965L27.426 45.8967L18.6306 41.0047C15.5522 39.0957 13.1135 36.3912 11.5544 33.289H8.67588C10.435 37.306 13.3934 40.8059 17.3113 43.232L27.426 48.8796L37.5806 43.1922C44.1371 39.1355 48.0151 32.1356 48.0151 24.4597V0H6.79688Z" fill="#F79633"/>
	<path d="M31.7031 29.2721C31.6631 27.9994 30.6236 26.9653 29.3443 27.0051C28.025 27.0449 27.0255 28.079 27.0655 29.4312C27.1055 30.6641 28.1449 31.6584 29.4243 31.6584C30.7036 31.6186 31.743 30.5448 31.7031 29.2721ZM33.2622 29.4312C33.1823 31.6186 31.3432 33.2891 29.1444 33.1698C26.9855 33.0504 25.3864 31.2209 25.5063 29.0335C25.6263 27.0051 27.5053 25.3347 29.5442 25.454C31.823 25.5733 33.3422 27.4426 33.2622 29.4312Z"/>
	<path d="M35.9805 6.95996C36.1404 6.95996 36.2603 6.95996 36.4202 6.95996C36.4202 15.0336 36.4202 23.1073 36.4202 31.2208C36.5402 31.2208 36.6201 31.2208 36.7001 31.2208C38.0993 31.2208 39.5386 31.2208 40.9378 31.2208C41.4976 31.2208 42.0573 31.3401 42.577 31.4196C42.617 31.4196 42.6569 31.5389 42.7369 31.5787L42.6969 31.6185C40.4581 31.6185 38.2193 31.6185 35.9805 31.6185C35.9805 23.4255 35.9805 15.2325 35.9805 6.95996Z"/>
	<path d="M21.7908 21.3973C21.7908 21.4769 21.7508 21.5166 21.7508 21.5962C20.3915 21.5962 19.0722 21.5962 17.673 21.5962C17.4731 19.9258 17.3132 18.2156 17.1133 16.5054C17.3132 16.5054 17.4731 16.5054 17.673 16.5054C17.673 16.3065 17.713 16.1474 17.713 15.9883C17.7529 15.7895 17.8329 15.6304 18.0728 15.5906C18.3126 15.5509 18.4726 15.6702 18.5125 15.869C18.6325 16.2667 18.7524 16.6645 18.7524 17.102C18.7924 18.0963 18.7524 19.1303 18.7124 20.1246C18.7124 20.2837 18.7124 20.403 18.7124 20.5621C19.0722 20.5223 19.4321 20.4428 19.7919 20.403C20.4315 20.3632 21.0712 20.3235 21.7508 20.3235C21.8308 20.3235 21.9507 20.3632 22.0307 20.3632C22.2306 20.403 22.4305 20.4428 22.4704 20.6814C22.5104 20.9201 22.3505 21.1189 22.1906 21.278C22.1106 21.3973 21.9507 21.3575 21.7908 21.3973Z"/>
	<path d="M30.1851 29.3118C30.1851 29.7493 29.8253 30.1072 29.3855 30.1072C28.9457 30.1072 28.5859 29.7493 28.5859 29.3118C28.5859 28.8743 28.9857 28.5164 29.3855 28.5164C29.8653 28.5164 30.1851 28.8743 30.1851 29.3118Z"/>
	<path d="M19.5517 30.1868C19.5517 29.4312 18.9121 28.7948 18.1525 28.7948C17.3529 28.8346 16.7532 29.4311 16.7932 30.2664C16.7932 31.022 17.4728 31.6186 18.1924 31.5788C18.952 31.5788 19.5517 30.9425 19.5517 30.1868ZM20.4712 30.2664C20.4313 31.5788 19.3119 32.5731 17.9926 32.4936C16.6733 32.414 15.7138 31.3004 15.7937 29.988C15.8737 28.755 16.9931 27.7607 18.2324 27.8403C19.5917 27.9596 20.5112 29.0732 20.4712 30.2664Z"/>
	<path d="M18.6314 30.2266C18.6314 30.505 18.4315 30.7039 18.1516 30.7039C17.8718 30.7039 17.6719 30.4652 17.6719 30.2266C17.6719 29.988 17.9117 29.7493 18.1516 29.7493C18.4315 29.7096 18.6314 29.9482 18.6314 30.2266Z"/>
</svg>
